<svg width="512" height="512" viewBox="0 0 512 512" fill="none" xmlns="http://www.w3.org/2000/svg">
  <rect width="512" height="512" fill="#1a1a2e"/>
  <g transform="translate(100, 100)">
    <path d="M20 50C20 22.3858 42.3858 0 70 0H180C207.614 0 230 22.3858 230 50V130C230 157.614 207.614 180 180 180H70C42.3858 180 20 157.614 20 130V50Z" fill="#8A2BE2"/>
    <path d="M100 130C100 102.386 122.386 80 150 80H260C287.614 80 310 102.386 310 130V210C310 237.614 287.614 260 260 260H150C122.386 260 100 237.614 100 210V130Z" fill="#A29BFE" fill-opacity="0.8"/>
    <path d="M60 90C60 73.4315 73.4315 60 90 60H220C236.569 60 250 73.4315 250 90V170C250 186.569 236.569 200 220 200H90C73.4315 200 60 186.569 60 170V90Z" fill="#ffffff"/>
    <circle cx="105" cy="130" r="12" fill="#1a1a2e"/>
    <circle cx="155" cy="130" r="12" fill="#1a1a2e"/>
    <circle cx="205" cy="130" r="12" fill="#1a1a2e"/>
  </g>
  <text x="50%" y="420" text-anchor="middle" fill="#ffffff" font-family="Arial" font-weight="900" font-size="80" style="letter-spacing: 5px;">ZORA</text>
</svg>