<svg xmlns="http://www.w3.org/2000/svg" viewBox="0 0 500 500" width="100%" height="100%">
  <defs>
    <radialGradient id="bgGlow" cx="50%" cy="50%" r="50%">
      <stop offset="0%" stop-color="#3d1488" />
      <stop offset="100%" stop-color="#0c0320" />
    </radialGradient>
    
    <filter id="neonGlow" x="-50%" y="-50%" width="200%" height="200%">
      <feGaussianBlur stdDeviation="8" result="blur1" />
      <feGaussianBlur stdDeviation="15" result="blur2" />
      <feMerge>
        <feMergeNode in="blur2" />
        <feMergeNode in="blur1" />
        <feMergeNode in="SourceGraphic" />
      </feMerge>
    </filter>
  </defs>

  <rect width="500" height="500" rx="100" fill="url(#bgGlow)" />

  <path d="M 150 320 C 110 320, 90 300, 90 260 L 90 140 C 90 100, 110 80, 150 80 L 360 80 C 400 80, 420 100, 420 140 L 420 330 C 420 370, 400 390, 360 390 L 310 390"
        fill="none" stroke="#7a22ff" stroke-width="24" stroke-linecap="round" stroke-linejoin="round" filter="url(#neonGlow)" />

  <path d="M 90 280 L 90 350 L 130 315"
        fill="none" stroke="#7a22ff" stroke-width="24" stroke-linecap="round" stroke-linejoin="round" filter="url(#neonGlow)" />

  <path d="M 230 180 L 400 180 C 440 180, 460 200, 460 240 L 460 380 C 460 420, 440 440, 400 440 L 250 440 L 190 480 L 190 420 C 170 410, 160 390, 160 360 L 160 240 C 160 200, 180 180, 210 180 Z"
        fill="#11052b" />

  <path d="M 210 180 L 400 180 C 440 180, 460 200, 460 240 L 460 380 C 460 420, 440 440, 400 440 L 250 440 L 190 480 L 190 420 C 170 410, 160 390, 160 360 L 160 270"
        fill="none" stroke="#a25aff" stroke-width="22" stroke-linecap="round" stroke-linejoin="round" filter="url(#neonGlow)" />

  <circle cx="260" cy="310" r="14" fill="#ffffff" />
  <circle cx="310" cy="310" r="14" fill="#ffffff" />
  <circle cx="360" cy="310" r="14" fill="#ffffff" />
</svg>